<svg width="63" height="63" viewBox="0 0 63 63" fill="none" xmlns="http://www.w3.org/2000/svg">
<path d="M62.839 31.5663C62.839 48.9188 48.772 62.9858 31.4195 62.9858C14.067 62.9858 0 48.9188 0 31.5663C0 14.2138 14.067 0.146782 31.4195 0.146782C48.772 0.146782 62.839 14.2138 62.839 31.5663Z" fill="url(#paint0_radial_19_2)"/>
<path d="M32.9534 48.2322C34.2938 48.2322 35.4711 48.1807 36.485 48.0776C37.499 47.9745 38.3841 47.7854 39.1402 47.5104C39.9136 47.2183 40.5753 46.823 41.1252 46.3246C41.6752 45.809 42.1478 45.1474 42.543 44.3397C42.9383 43.5319 43.2734 42.5523 43.5484 41.4009C43.8406 40.2322 43.7849 38.9607 43.7849 37.2505H46.1263L45.5591 50.2945H16.7128V48.2322H19.2906H21.8685V44.3397V17.3066V14.9004H19.2906H16.7128V12.8381H32.0511V14.9004H29.4732H26.8954V17.3066V44.3397V48.2322H29.8045H29.9243H32.9534Z" fill="white"/>
<path d="M26.8954 48.2322H29.8045C28.7635 48.2025 26.8954 47.4043 26.8954 44.3397V48.2322Z" fill="white"/>
<path d="M21.8685 48.2322V44.3397C21.8685 45.6372 21.3529 48.2322 19.2906 48.2322H21.8685Z" fill="white"/>
<path d="M26.8954 14.9004V17.3066C26.8953 16.5045 27.4109 14.9004 29.4732 14.9004H26.8954Z" fill="white"/>
<path d="M21.8685 14.9004H19.2906C20.1499 15.046 21.8685 15.7311 21.8685 17.3066V14.9004Z" fill="white"/>
<path fill-rule="evenodd" clip-rule="evenodd" d="M45.6074 21.1834H43.7997C43.1972 21.3279 41.9921 21.9304 41.9921 23.1839V39.4407C41.9921 40.3446 41.8234 41.2303 41.4859 42.098C41.1606 42.9536 40.6906 43.7188 40.076 44.3937C39.4614 45.0565 38.7082 45.5928 37.8164 46.0025C36.9367 46.4123 35.9485 46.6171 34.8519 46.6171C34.0324 46.6171 33.2732 46.4966 32.5742 46.2556C31.8752 46.0266 31.2667 45.7193 30.7485 45.3337C30.2423 44.9481 29.8446 44.5022 29.5554 43.996C29.2662 43.4778 29.1216 42.9416 29.1216 42.3872C29.1216 42.0257 29.1818 41.7063 29.3023 41.4291C29.4229 41.152 29.5795 40.923 29.7723 40.7422C29.9772 40.5494 30.2062 40.4048 30.4592 40.3084C30.7244 40.1999 31.0015 40.1457 31.2908 40.1457C31.6041 40.1457 31.8813 40.206 32.1223 40.3265C32.3754 40.4349 32.5863 40.5856 32.755 40.7784C32.9357 40.9592 33.0683 41.1761 33.1527 41.4291C33.2491 41.6822 33.2973 41.9473 33.2973 42.2245C33.2973 42.6222 33.2009 43.0199 33.008 43.4176C32.8152 43.8032 32.538 44.1346 32.1765 44.4118C32.9598 44.9179 33.8637 45.171 34.888 45.171C35.3941 45.171 35.8641 45.0987 36.298 44.9541C36.7439 44.7974 37.1295 44.5443 37.4549 44.1949C37.7803 43.8333 38.0333 43.3694 38.2141 42.803C38.3949 42.2366 38.4852 41.5376 38.4852 40.7061V23.1839C38.2952 22.517 37.6495 21.1834 36.5872 21.1834H34.6892V19.7373H45.6074V21.1834ZM31.7581 43.4684L31.7593 43.4691L30.981 44.0002L30.9591 43.9842C30.6759 43.7684 30.4534 43.5189 30.2916 43.2357C30.1298 42.9458 30.0489 42.6458 30.0489 42.3356C30.0489 42.1333 30.0826 41.9546 30.15 41.7996C30.2175 41.6445 30.3051 41.5164 30.413 41.4152C30.5276 41.3074 30.6557 41.2264 30.7973 41.1725C30.9456 41.1118 31.1007 41.0815 31.2625 41.0815C31.4379 41.0815 31.5929 41.1152 31.7278 41.1826C31.8694 41.2433 31.9874 41.3276 32.0818 41.4355C32.1829 41.5366 32.2571 41.658 32.3043 41.7996C32.3582 41.9412 32.3852 42.0895 32.3852 42.2446C32.3852 42.4671 32.3312 42.6896 32.2234 42.9121C32.1155 43.1279 31.9604 43.3133 31.7581 43.4684Z" fill="white"/>
<path fill-rule="evenodd" clip-rule="evenodd" d="M41.4492 11.108C41.4603 11.1046 41.4732 11.1004 41.4881 11.0951C41.609 11.0525 41.7514 10.9837 41.9358 10.8946C41.9861 10.8703 42.0395 10.8445 42.0964 10.8173C42.3405 10.7008 42.6357 10.5665 42.9335 10.4882C43.2269 10.411 43.592 10.3691 43.9414 10.516C44.5099 10.755 44.8609 11.248 44.9377 11.7666C45.0153 12.2899 44.8091 12.8637 44.2533 13.1581C44.0449 13.2685 43.8523 13.3369 43.6933 13.3893C43.6546 13.4021 43.6195 13.4134 43.5875 13.4238C43.4771 13.4595 43.4019 13.4839 43.3299 13.5163C43.2524 13.5512 43.2093 13.5834 43.1753 13.6234C43.1409 13.6638 43.0943 13.7378 43.0504 13.8845C43.1109 13.9198 43.2168 13.9633 43.4124 14.037C43.4232 14.0411 43.4343 14.0453 43.4457 14.0496C43.8588 14.2049 44.572 14.4729 44.8609 15.2519C44.9295 15.4369 44.9721 15.6435 44.9358 15.8515C44.896 16.0796 44.7695 16.2603 44.5935 16.3792C44.4336 16.4871 44.2529 16.5314 44.0993 16.5506C43.9412 16.5703 43.7737 16.568 43.6114 16.5554C43.1659 16.5209 42.5981 16.3898 42.1343 16.2827C42.1199 16.2794 42.1056 16.2761 42.0915 16.2728C42.099 16.291 42.1068 16.3102 42.115 16.3305C42.2228 16.5965 42.3611 16.9708 42.3606 17.3547C42.3601 17.781 42.1875 18.2082 41.7261 18.5068C41.3335 18.7608 40.916 18.8523 40.5206 18.6669C40.1796 18.507 39.9696 18.1858 39.8334 17.9433C39.7598 17.8124 39.6922 17.6742 39.6315 17.55L39.6265 17.5399C39.5656 17.415 39.5114 17.3041 39.4554 17.2023C39.3815 17.0682 39.323 16.9867 39.2795 16.9384C39.2411 16.9825 39.1964 17.0423 39.1407 17.1225C39.1193 17.1534 39.092 17.1936 39.0624 17.2373C39.0159 17.3061 38.9635 17.3835 38.9189 17.4462C38.7652 17.6629 38.535 17.9611 38.2027 18.1209C37.8169 18.3063 37.3908 18.2659 36.963 18.0032C36.6465 17.8089 36.3733 17.579 36.2534 17.2663C36.1205 16.9195 36.2235 16.6072 36.3399 16.3808C36.4218 16.2215 36.5445 16.0435 36.6576 15.8796C36.692 15.8296 36.7256 15.781 36.7568 15.7345C36.9045 15.5149 37.0521 15.2755 37.1724 14.9895C37.2113 14.8968 37.225 14.8401 37.229 14.8086C37.2189 14.803 37.205 14.796 37.1864 14.788C37.1241 14.7614 37.0378 14.7355 36.9174 14.7071C36.8576 14.693 36.7852 14.6778 36.7052 14.661C36.5055 14.6191 36.2583 14.5671 36.042 14.498C35.7202 14.3953 35.3539 14.2257 35.0809 13.8939C34.7963 13.5478 34.712 13.1373 34.8129 12.7449C34.9089 12.3713 35.1598 12.0574 35.4664 11.8287C36.0813 11.3699 37.0301 11.1664 37.9873 11.4981C38.0609 11.5235 38.1081 11.5317 38.135 11.5341C38.1546 11.4908 38.1774 11.4117 38.1945 11.2805C38.2127 11.1408 38.2204 10.977 38.2259 10.7874C38.2271 10.744 38.2282 10.6988 38.2293 10.652C38.2373 10.322 38.247 9.91754 38.3284 9.584C38.3766 9.38624 38.4598 9.16584 38.6189 8.98258C38.7897 8.78598 39.0221 8.66215 39.302 8.63201C39.8043 8.57793 40.209 8.71691 40.5034 9.0249C40.7654 9.29904 40.894 9.66364 40.9805 9.95356C41.0167 10.0749 41.046 10.1832 41.0731 10.2835C41.1209 10.4606 41.162 10.6124 41.2222 10.7657C41.302 10.9688 41.3781 11.0624 41.4492 11.108ZM37.2286 14.7759C37.2292 14.7754 37.2305 14.7792 37.2305 14.7887C37.2279 14.7811 37.2279 14.7763 37.2286 14.7759ZM41.6 16.1691C41.5998 16.169 41.6023 16.1689 41.6077 16.1693C41.6028 16.1695 41.6001 16.1693 41.6 16.1691ZM39.7934 9.7035C39.7388 9.64644 39.6506 9.58231 39.4072 9.60853C39.3722 9.61229 39.3664 9.61938 39.3618 9.62503C39.3614 9.62554 39.361 9.62604 39.3605 9.62652C39.3439 9.6457 39.3115 9.69826 39.2825 9.81688C39.2283 10.0391 39.2207 10.3245 39.2115 10.6725C39.2103 10.7191 39.209 10.7668 39.2076 10.8157C39.2021 11.0076 39.1936 11.2144 39.1684 11.4073C39.1439 11.5957 39.0993 11.8092 39.0008 11.9988C38.8955 12.2014 38.7189 12.3925 38.444 12.4756C38.1871 12.5534 37.9183 12.5136 37.6658 12.4261C37.0148 12.2005 36.4066 12.3526 36.0537 12.6159C35.8763 12.7483 35.7904 12.887 35.7641 12.9894C35.7426 13.073 35.7505 13.1618 35.8395 13.27C35.9402 13.3924 36.1004 13.4856 36.3408 13.5624C36.5093 13.6162 36.6672 13.6491 36.8417 13.6855C36.9358 13.7051 37.0347 13.7257 37.1425 13.7511C37.2806 13.7836 37.4323 13.8249 37.5732 13.8853C37.7135 13.9454 37.8731 14.0369 37.9999 14.1868C38.2951 14.5359 38.2449 14.9726 38.0778 15.3701C37.922 15.7408 37.7347 16.0405 37.5718 16.2826C37.5198 16.3599 37.4736 16.4271 37.4324 16.4868C37.3337 16.6303 37.264 16.7314 37.2134 16.8299C37.188 16.8792 37.1784 16.908 37.175 16.9226C37.1812 16.9325 37.195 16.9512 37.223 16.9787C37.271 17.0259 37.3501 17.0883 37.4769 17.1662C37.6723 17.2862 37.7443 17.2515 37.7759 17.2363L37.7773 17.2356C37.8617 17.1951 37.9676 17.0898 38.1178 16.878C38.162 16.8157 38.1971 16.7637 38.2345 16.7081C38.2643 16.6641 38.2954 16.6178 38.3338 16.5625C38.4075 16.4564 38.4955 16.3356 38.5956 16.2312C38.6934 16.1291 38.8344 16.0086 39.0235 15.9473C39.2335 15.8793 39.4506 15.9008 39.65 16.0007C39.9804 16.1662 40.1837 16.4888 40.3157 16.7285C40.3837 16.852 40.4474 16.9826 40.5051 17.1006L40.514 17.119C40.5763 17.2465 40.6321 17.3598 40.6896 17.4622C40.8156 17.6864 40.8982 17.7592 40.9375 17.7776L40.9377 17.7777C40.9441 17.7807 40.952 17.7844 40.9769 17.7806C41.0095 17.7757 41.0791 17.7556 41.1925 17.6822C41.3435 17.5845 41.3783 17.4859 41.3784 17.3535C41.3787 17.1788 41.311 16.9615 41.2048 16.6994C41.187 16.6555 41.1649 16.6027 41.1421 16.5482C41.1097 16.4707 41.0759 16.3901 41.0515 16.3277C41.0082 16.2172 40.953 16.066 40.9375 15.9169C40.9218 15.7655 40.9378 15.4537 41.2395 15.2787C41.4619 15.1497 41.7134 15.1856 41.8611 15.2156C42.0514 15.2544 42.249 15.3001 42.4469 15.3459C42.8819 15.4465 43.319 15.5477 43.6871 15.5762C43.7883 15.584 43.8705 15.5847 43.9349 15.5801C43.811 15.2633 43.5227 15.1284 43.0658 14.956C43.0532 14.9513 43.0402 14.9464 43.0267 14.9414C42.8404 14.8716 42.5749 14.7721 42.3829 14.6127C42.2654 14.5151 42.1521 14.3785 42.0941 14.1916C42.0364 14.0057 42.0486 13.8185 42.0974 13.6447C42.1708 13.3833 42.2761 13.1647 42.4271 12.9871C42.5805 12.8068 42.7567 12.6972 42.9267 12.6207C43.0532 12.5637 43.1949 12.5181 43.3121 12.4804C43.3381 12.4721 43.3628 12.4641 43.386 12.4565C43.5266 12.4101 43.658 12.362 43.7936 12.2902C43.926 12.22 43.9925 12.0881 43.9662 11.9106C43.9392 11.7286 43.8099 11.5261 43.5607 11.4214C43.5013 11.3964 43.3878 11.3843 43.1833 11.4381C42.9833 11.4906 42.7614 11.5882 42.5196 11.7036C42.4784 11.7233 42.4356 11.7441 42.3918 11.7653C42.2016 11.8574 41.9927 11.9587 41.8146 12.0214C41.7035 12.0606 41.5625 12.1008 41.4152 12.1037C41.2814 12.1064 41.1054 12.0774 40.953 11.9558C40.6054 11.7487 40.4218 11.4143 40.3081 11.1249C40.2286 10.9226 40.162 10.6783 40.1054 10.4704C40.0817 10.3835 40.0598 10.3029 40.0394 10.2344C39.9565 9.95682 39.8803 9.79441 39.7934 9.7035ZM37.1735 16.9346C37.1732 16.9348 37.173 16.9329 37.1738 16.9282C37.1742 16.9321 37.1738 16.9344 37.1735 16.9346Z" fill="#C0BDBD"/>
<path fill-rule="evenodd" clip-rule="evenodd" d="M40.753 11.9117C40.8114 12.0603 40.8708 12.1322 40.9356 12.1664L40.9384 12.1679C40.951 12.1646 40.9666 12.1599 40.9855 12.1532C41.0669 12.1245 41.1627 12.0782 41.2834 12.0199C41.3158 12.0043 41.35 11.9877 41.3862 11.9704C41.545 11.8946 41.7337 11.8089 41.923 11.7592C42.1097 11.71 42.3354 11.6853 42.5491 11.7751C42.904 11.9243 43.1219 12.2315 43.1696 12.5531C43.2176 12.8772 43.0901 13.2298 42.7484 13.4108C42.6162 13.4808 42.4937 13.5243 42.3911 13.5582C42.3668 13.5662 42.3445 13.5734 42.3239 13.58C42.2513 13.6036 42.1992 13.6204 42.1499 13.6426C42.095 13.6674 42.0605 13.692 42.0327 13.7248C42.0036 13.759 41.9684 13.8179 41.9371 13.9292C41.9353 13.9358 41.9341 13.9411 41.9333 13.9453C41.9737 13.9777 42.0503 14.0096 42.2062 14.0684C42.2125 14.0708 42.2189 14.0732 42.2253 14.0756C42.4954 14.1773 42.9414 14.345 43.122 14.8319C43.1651 14.9481 43.1902 15.0737 43.1685 15.1979C43.1449 15.3333 43.0702 15.44 42.9656 15.5106C42.87 15.5752 42.7605 15.6026 42.6643 15.6146C42.5656 15.6269 42.4599 15.6255 42.356 15.6175C42.0697 15.5954 41.7066 15.5115 41.4055 15.442C41.3637 15.4323 41.3232 15.423 41.2842 15.4141C41.2846 15.415 41.285 15.4159 41.2854 15.4169C41.3 15.4515 41.3159 15.4894 41.3346 15.5355C41.4047 15.7085 41.4913 15.9447 41.491 16.1847C41.4907 16.4482 41.385 16.7107 41.0993 16.8955C40.852 17.0556 40.5977 17.1082 40.3598 16.9967C40.1522 16.8993 40.0215 16.702 39.9333 16.545C39.8862 16.4611 39.8427 16.3724 39.8031 16.2913L39.7996 16.2842C39.7602 16.2033 39.7244 16.1302 39.6874 16.0629C39.6197 15.94 39.568 15.8769 39.5302 15.8475C39.5257 15.8517 39.5203 15.8569 39.5142 15.8633C39.483 15.8958 39.4475 15.9424 39.4029 16.0068C39.3881 16.028 39.3701 16.0546 39.3507 16.0833C39.3208 16.1275 39.2877 16.1764 39.2587 16.2172C39.1588 16.3581 39.0148 16.543 38.8103 16.6413C38.5761 16.7539 38.3156 16.7313 38.048 16.567C37.8442 16.4419 37.6776 16.2991 37.6052 16.1104C37.5256 15.9028 37.5863 15.7145 37.6595 15.5721C37.7113 15.4713 37.7885 15.3593 37.8618 15.253C37.8846 15.2199 37.907 15.1874 37.9281 15.156C38.025 15.0119 38.1231 14.8531 38.203 14.6629C38.2394 14.5763 38.2449 14.5288 38.2444 14.5088C38.2443 14.5061 38.2442 14.504 38.244 14.5026C38.2389 14.4979 38.2236 14.4859 38.1874 14.4704C38.1431 14.4514 38.0837 14.4338 38.0045 14.4151C37.9636 14.4055 37.915 14.3953 37.862 14.3842C37.7327 14.357 37.5765 14.3242 37.438 14.28C37.2324 14.2143 37.0037 14.1076 36.8342 13.9015C36.6582 13.6875 36.607 13.4356 36.6689 13.1949C36.7281 12.9646 36.8836 12.7685 37.077 12.6242C37.4649 12.3348 38.0664 12.2048 38.6751 12.4157C38.7641 12.4465 38.8041 12.4429 38.8138 12.4412C38.8142 12.4407 38.8147 12.44 38.8153 12.4392C38.8175 12.4363 38.8206 12.4315 38.8244 12.4242C38.8417 12.391 38.8593 12.3318 38.8719 12.2357C38.884 12.1422 38.8891 12.0335 38.8927 11.9099C38.8935 11.8813 38.8942 11.8516 38.8949 11.8211C38.9002 11.6055 38.9064 11.3479 38.9581 11.1362C38.9886 11.0112 39.0403 10.8757 39.1371 10.7642C39.2404 10.6453 39.3808 10.5702 39.5515 10.5518C39.8661 10.5179 40.1146 10.6049 40.2948 10.7934C40.457 10.9632 40.5382 11.1909 40.5944 11.3791C40.6171 11.4552 40.6359 11.5246 40.6534 11.5896C40.6851 11.7068 40.7129 11.8096 40.753 11.9117ZM38.2435 14.4995C38.2435 14.4995 38.2435 14.4996 38.2436 14.4998C38.2435 14.4996 38.2435 14.4995 38.2435 14.4995ZM41.0448 15.366C41.0448 15.366 41.0454 15.3659 41.0467 15.3659C41.0455 15.366 41.0449 15.366 41.0448 15.366ZM41.932 13.9574C41.932 13.9575 41.932 13.9572 41.932 13.9567C41.932 13.9572 41.932 13.9574 41.932 13.9574ZM39.9003 11.1704C39.8533 11.1213 39.7808 11.0759 39.6099 11.0943C39.5735 11.0982 39.5603 11.109 39.5491 11.1219C39.5315 11.1423 39.5079 11.1845 39.4882 11.2655C39.4516 11.4155 39.4465 11.6068 39.4406 11.8323C39.4398 11.8628 39.439 11.8939 39.4381 11.9256C39.4345 12.0505 39.429 12.1831 39.4129 12.3062C39.3972 12.4267 39.3691 12.5594 39.3086 12.6757C39.2445 12.7993 39.1383 12.9133 38.9742 12.9629C38.82 13.0096 38.6559 12.9865 38.4964 12.9313C38.0579 12.7793 37.6456 12.8808 37.4033 13.0616C37.2816 13.1524 37.2178 13.2511 37.1974 13.3307C37.1796 13.3999 37.1883 13.4731 37.2556 13.5549C37.3295 13.6446 37.4436 13.709 37.604 13.7602C37.7159 13.7959 37.8226 13.8182 37.9378 13.8422C37.9987 13.8549 38.0619 13.8681 38.1296 13.884C38.2186 13.905 38.3143 13.9311 38.4023 13.9688C38.4899 14.0064 38.5866 14.0623 38.6627 14.1523C38.8381 14.3597 38.8121 14.6221 38.706 14.8743C38.6063 15.1116 38.4862 15.3039 38.3809 15.4605C38.3483 15.509 38.3188 15.5518 38.2923 15.5903C38.2269 15.6853 38.1792 15.7546 38.1447 15.8215C38.1232 15.8634 38.1162 15.8881 38.1141 15.9011C38.1127 15.91 38.1136 15.9122 38.1146 15.9148L38.1147 15.9151C38.1205 15.9302 38.1563 15.9932 38.3335 16.102C38.4736 16.188 38.5369 16.1673 38.574 16.1495C38.6408 16.1174 38.7157 16.0396 38.8137 15.9015C38.8424 15.861 38.866 15.8261 38.8908 15.7893C38.9102 15.7605 38.9304 15.7305 38.9546 15.6957C39.0023 15.627 39.0579 15.5509 39.1203 15.4857C39.1816 15.4218 39.267 15.3495 39.3796 15.313C39.5038 15.2728 39.6324 15.2851 39.752 15.3451C39.9531 15.4458 40.0797 15.6441 40.1653 15.7997C40.209 15.879 40.2501 15.9631 40.2877 16.0402L40.2934 16.0519C40.3339 16.1347 40.3708 16.2097 40.409 16.2778C40.4915 16.4246 40.5514 16.4839 40.5914 16.5026C40.5917 16.5027 40.5919 16.5029 40.5922 16.503C40.6036 16.5085 40.655 16.5331 40.8029 16.4374C40.9161 16.3642 40.9453 16.2843 40.9454 16.184C40.9456 16.0603 40.8981 15.9113 40.8289 15.7404C40.8168 15.7105 40.8022 15.6757 40.7873 15.6402C40.7665 15.5905 40.7451 15.5395 40.7293 15.4989C40.7011 15.427 40.6674 15.3338 40.658 15.2437C40.6485 15.1523 40.659 14.9737 40.8316 14.8736C40.9601 14.799 41.1082 14.8186 41.2034 14.8379C41.3243 14.8625 41.4512 14.8919 41.5792 14.9215C41.8642 14.9875 42.1548 15.0547 42.3981 15.0735C42.4813 15.0799 42.5473 15.0793 42.5966 15.0731C42.6078 15.0717 42.6172 15.0702 42.6252 15.0686C42.6222 15.0564 42.6175 15.0408 42.6104 15.0216C42.5231 14.7864 42.3127 14.6917 42.0137 14.579C42.0058 14.576 41.9977 14.573 41.9894 14.5699C41.8666 14.5238 41.701 14.4617 41.5825 14.3633C41.5111 14.304 41.4437 14.2222 41.4093 14.1113C41.375 14.0009 41.3818 13.8884 41.4118 13.7818C41.4582 13.6162 41.5242 13.4805 41.617 13.3713C41.7112 13.2606 41.8196 13.1929 41.9258 13.1451C42.0055 13.1092 42.0945 13.0805 42.1708 13.056C42.1881 13.0504 42.2046 13.0451 42.2203 13.0399C42.3128 13.0095 42.4012 12.9772 42.493 12.9286C42.5995 12.8722 42.6494 12.7651 42.6299 12.6331C42.6099 12.4985 42.5151 12.3527 42.3376 12.2781C42.285 12.256 42.1991 12.2507 42.0617 12.2869C41.9268 12.3223 41.7788 12.3876 41.6213 12.4628C41.5938 12.476 41.5655 12.4897 41.5366 12.5036C41.4129 12.5636 41.28 12.6279 41.1669 12.6678C41.0962 12.6927 41.01 12.717 40.9215 12.7188C40.8407 12.7204 40.7371 12.7027 40.6484 12.6308C40.4333 12.5039 40.3181 12.2967 40.2452 12.1112C40.1944 11.9819 40.1524 11.8278 40.1158 11.6934C40.1002 11.6358 40.0855 11.5819 40.0715 11.5351C40.0174 11.3538 39.9653 11.2384 39.9003 11.1704Z" fill="#272BAD"/>
<path fill-rule="evenodd" clip-rule="evenodd" d="M40.4551 13.088C40.4572 13.0873 40.4594 13.0865 40.4619 13.0856C40.499 13.0726 40.5426 13.0515 40.6 13.0238C40.6157 13.0162 40.6325 13.0081 40.6504 12.9995C40.7265 12.9632 40.8192 12.9209 40.9131 12.8963C41.0055 12.872 41.122 12.8583 41.234 12.9054C41.4146 12.9813 41.5264 13.1381 41.5509 13.3034C41.5756 13.4702 41.5098 13.6538 41.332 13.7479C41.2663 13.7827 41.2056 13.8043 41.1559 13.8207C41.1436 13.8247 41.1326 13.8283 41.1225 13.8316C41.0883 13.8426 41.0656 13.85 41.0437 13.8598C41.0206 13.8703 41.0086 13.8795 40.9993 13.8904C40.9904 13.9009 40.9776 13.9205 40.965 13.9597C40.9837 13.9693 41.0148 13.982 41.0688 14.0024C41.0723 14.0037 41.076 14.0051 41.0797 14.0065C41.2082 14.0548 41.4346 14.1398 41.5264 14.3872C41.5481 14.4458 41.562 14.5122 41.5502 14.5795C41.5373 14.6536 41.4961 14.7124 41.439 14.751C41.3872 14.7859 41.3291 14.8 41.2804 14.8061C41.2301 14.8124 41.1772 14.8116 41.1262 14.8077C40.989 14.7971 40.8145 14.7571 40.6711 14.724C40.7047 14.8069 40.7481 14.9248 40.748 15.0461C40.7478 15.1821 40.6926 15.3188 40.5454 15.414C40.4212 15.4944 40.2871 15.5245 40.1594 15.4646C40.0499 15.4133 39.9831 15.3105 39.9405 15.2347C39.9175 15.1936 39.8962 15.1503 39.8774 15.1116L39.8759 15.1086C39.8568 15.0696 39.8401 15.0352 39.8227 15.0038C39.8042 14.9701 39.7891 14.9477 39.7773 14.933C39.7676 14.9451 39.7563 14.9604 39.7428 14.9798C39.7363 14.9892 39.7279 15.0016 39.7187 15.0152C39.7041 15.0368 39.6875 15.0612 39.6737 15.0808C39.6257 15.1484 39.5526 15.2434 39.4464 15.2944C39.3223 15.3541 39.1857 15.3406 39.0499 15.2572C38.9508 15.1964 38.8631 15.1232 38.8244 15.0224C38.7814 14.9102 38.815 14.8095 38.8519 14.7377C38.8777 14.6874 38.9166 14.6311 38.9519 14.5799C38.9625 14.5645 38.9728 14.5495 38.9824 14.5353C39.0282 14.4671 39.0738 14.3932 39.1109 14.305C39.1201 14.2832 39.1245 14.2683 39.1265 14.2587C39.1249 14.2579 39.123 14.2571 39.1209 14.2562C39.1024 14.2482 39.0762 14.2403 39.0388 14.2315C39.0207 14.2273 38.9984 14.2226 38.9737 14.2174C38.9113 14.2043 38.8332 14.1879 38.7653 14.1662C38.6641 14.1339 38.5478 14.0802 38.4608 13.9745C38.37 13.8641 38.3429 13.7327 38.3752 13.6071C38.4059 13.4877 38.4859 13.388 38.5828 13.3157C38.7773 13.1706 39.0766 13.1067 39.3782 13.2112C39.3942 13.2167 39.4059 13.2195 39.4139 13.2208C39.4187 13.2075 39.4243 13.1856 39.4286 13.1521C39.4342 13.1091 39.4366 13.0586 39.4383 12.9995C39.4387 12.9861 39.439 12.972 39.4394 12.9575C39.4418 12.8548 39.4449 12.7275 39.4706 12.6223C39.4858 12.5599 39.5123 12.4894 39.5634 12.4305C39.6184 12.3671 39.6933 12.3273 39.7832 12.3176C39.9425 12.3005 40.072 12.3446 40.1664 12.4433C40.2499 12.5307 40.2905 12.6465 40.3175 12.737C40.329 12.7754 40.3382 12.8094 40.3467 12.8408C40.3614 12.8955 40.374 12.9419 40.3925 12.9892C40.4154 13.0473 40.4366 13.0745 40.4551 13.088ZM39.1278 14.244C39.128 14.2439 39.1283 14.2451 39.1281 14.2479C39.1276 14.2455 39.1277 14.2441 39.1278 14.244ZM40.4995 14.6873C40.4995 14.6872 40.5004 14.6872 40.5026 14.6874C40.5007 14.6875 40.4996 14.6874 40.4995 14.6873ZM39.9297 12.6695C39.9153 12.6544 39.8913 12.6353 39.8182 12.6431C39.8143 12.6435 39.8121 12.6442 39.8112 12.6445C39.8111 12.6446 39.8109 12.6448 39.8106 12.6451C39.807 12.6493 39.7974 12.6639 39.7886 12.7C39.772 12.768 39.7697 12.8556 39.7668 12.9644C39.7664 12.9789 39.766 12.9937 39.7656 13.0089C39.7638 13.0688 39.7612 13.1337 39.7533 13.1944C39.7456 13.2535 39.7315 13.3215 39.6999 13.3822C39.6661 13.4472 39.6091 13.5091 39.5201 13.5361C39.437 13.5612 39.3508 13.5482 39.271 13.5205C39.0715 13.4514 38.8857 13.4982 38.7786 13.5781C38.7247 13.6183 38.6997 13.6596 38.6923 13.6886C38.6865 13.7113 38.6881 13.7354 38.7137 13.7666C38.7432 13.8024 38.7909 13.8307 38.8649 13.8543C38.9169 13.8709 38.9653 13.881 39.0192 13.8922C39.0486 13.8983 39.0797 13.9048 39.1139 13.9129C39.1571 13.923 39.2051 13.9361 39.2498 13.9552C39.2944 13.9743 39.3458 14.0037 39.3867 14.0521C39.4826 14.1654 39.4654 14.3065 39.4127 14.4319C39.3638 14.5483 39.305 14.6423 39.2541 14.718C39.2376 14.7425 39.223 14.7636 39.2101 14.7824C39.1796 14.8267 39.1585 14.8574 39.143 14.8874C39.1377 14.8979 39.1348 14.905 39.1332 14.9095C39.1405 14.9188 39.1622 14.942 39.2212 14.9782C39.2778 15.013 39.297 15.0032 39.3037 14.9998C39.304 14.9996 39.3043 14.9995 39.3046 14.9993C39.3282 14.988 39.3599 14.9573 39.4066 14.8914C39.4204 14.872 39.4312 14.856 39.4427 14.8388C39.452 14.8251 39.4617 14.8107 39.4739 14.7932C39.4969 14.76 39.5247 14.7218 39.5565 14.6886C39.5875 14.6562 39.6329 14.6173 39.6942 14.5974C39.7625 14.5753 39.8331 14.5823 39.8975 14.6146C40.0036 14.6678 40.0683 14.771 40.1095 14.8458C40.1308 14.8845 40.1508 14.9254 40.1687 14.9622L40.1715 14.9679C40.191 15.0077 40.2082 15.0427 40.226 15.0744C40.2651 15.144 40.2895 15.164 40.2984 15.1682C40.2984 15.1682 40.2984 15.1682 40.2985 15.1682C40.2986 15.1683 40.2992 15.169 40.3046 15.1682C40.3128 15.167 40.3331 15.1615 40.3675 15.1392C40.4112 15.1109 40.4206 15.0838 40.4206 15.0457C40.4207 14.9935 40.4003 14.9275 40.3673 14.8459C40.3619 14.8325 40.355 14.8162 40.3479 14.7993C40.3377 14.7749 40.3271 14.7494 40.3195 14.73C40.306 14.6956 40.2883 14.6472 40.2833 14.5992C40.2782 14.5504 40.2832 14.4477 40.3826 14.39C40.4556 14.3477 40.5375 14.3597 40.5838 14.3691C40.6438 14.3813 40.7057 14.3957 40.7676 14.41C40.9027 14.4412 41.0376 14.4725 41.1514 14.4813C41.1751 14.4831 41.1952 14.4836 41.212 14.4832C41.1725 14.3992 41.089 14.3599 40.9533 14.3087C40.9493 14.3072 40.9452 14.3056 40.9409 14.304C40.8831 14.2824 40.7987 14.2508 40.7374 14.1999C40.6996 14.1686 40.6629 14.1243 40.6441 14.0637C40.6253 14.0033 40.6294 13.9428 40.645 13.8872C40.6682 13.8047 40.7016 13.7351 40.7499 13.6783C40.799 13.6206 40.8553 13.5856 40.9093 13.5613C40.9493 13.5433 40.9942 13.5288 41.0307 13.5171C41.0388 13.5145 41.0464 13.5121 41.0534 13.5097C41.0971 13.4953 41.1373 13.4806 41.1788 13.4586C41.2155 13.4392 41.2347 13.4029 41.227 13.3514C41.2192 13.2983 41.1813 13.2384 41.1071 13.2072C41.0917 13.2007 41.0591 13.1964 40.9964 13.2129C40.9351 13.229 40.8668 13.259 40.7915 13.2949C40.7788 13.301 40.7655 13.3074 40.752 13.314C40.6927 13.3427 40.6268 13.3746 40.5707 13.3944C40.5357 13.4067 40.4905 13.4197 40.443 13.4206C40.3998 13.4215 40.3424 13.4122 40.2926 13.3727C40.1817 13.3063 40.1235 13.1997 40.0878 13.1089C40.0628 13.0453 40.0418 12.968 40.0241 12.9031C40.0168 12.8762 40.01 12.8514 40.0038 12.8306C39.978 12.7442 39.9549 12.6958 39.9297 12.6695ZM39.1317 14.9158C39.1316 14.9159 39.1316 14.9154 39.1319 14.9142C39.1318 14.9152 39.1317 14.9158 39.1317 14.9158Z" fill="#C0BDBD"/>
<defs>
<radialGradient id="paint0_radial_19_2" cx="0" cy="0" r="1" gradientUnits="userSpaceOnUse" gradientTransform="translate(31.4195 31.5663) scale(31.4195)">
<stop stop-color="#282CB2"/>
<stop offset="0.87907" stop-color="#11134C"/>
</radialGradient>
</defs>
</svg>
